<?xml version="1.0" encoding="UTF-8"?>
<svg version="1.1" xmlns="http://www.w3.org/2000/svg" width="529" height="301">
<path d="M0 0 C8.42518915 6.38910177 15.00445555 15.93347864 17.8125 26.1328125 C18.44129123 32.13205815 18.17665646 38.12423088 17.8125 44.1328125 C18.42996094 44.13539063 19.04742187 44.13796875 19.68359375 44.140625 C28.08477002 44.52424035 33.17102596 47.68299499 39.1875 53.3828125 C43.68004174 60.98557544 44.89609606 69.4158842 43.8125 78.1328125 C41.21938094 86.44194668 35.60136979 92.06809284 28.09375 96.15234375 C22.70797657 98.46711966 17.14578337 98.3433315 11.37963867 98.45581055 C10.43196688 98.47718645 9.48429508 98.49856236 8.50790596 98.52058601 C5.35301902 98.58885308 2.19805633 98.64880754 -0.95703125 98.70703125 C-2.05407694 98.72824224 -3.15112263 98.74945324 -4.28141212 98.77130699 C-29.09508271 99.23971837 -53.90128858 99.21179734 -78.7175293 99.00073242 C-84.79795503 98.95006655 -90.8782427 98.92478153 -96.95883465 98.90430164 C-101.71756958 98.88400317 -106.47604734 98.84619263 -111.23462868 98.803442 C-113.48120926 98.78620794 -115.72784979 98.77543142 -117.97449303 98.77149391 C-121.07421343 98.76442543 -124.17274263 98.73258468 -127.2722168 98.69458008 C-128.63145767 98.69976906 -128.63145767 98.69976906 -130.01815796 98.70506287 C-137.34513695 98.57206626 -141.46335802 96.55427203 -147 91.6328125 C-151.09181657 86.9564507 -151.5044813 83.31852 -151.4375 77.1953125 C-151.44523438 76.49212891 -151.45296875 75.78894531 -151.4609375 75.06445312 C-151.43758409 68.83493184 -150.30787563 64.83193364 -145.9375 60.3828125 C-142.84709855 57.39607231 -140.60049628 56.24044656 -136.1875 56.1328125 C-136.01734375 55.4315625 -135.8471875 54.7303125 -135.671875 54.0078125 C-133.2367372 44.47450707 -130.77705151 36.71813663 -122.1875 31.1328125 C-121.5275 31.1328125 -120.8675 31.1328125 -120.1875 31.1328125 C-119.92453125 30.51664063 -119.6615625 29.90046875 -119.390625 29.265625 C-117.34179722 25.63361212 -113.96807683 24.42901027 -110.1875 23.1328125 C-101.45846658 21.07892228 -93.86292773 20.83116841 -85.1875 23.1328125 C-85.30738281 22.05193359 -85.30738281 22.05193359 -85.4296875 20.94921875 C-85.11124197 17.24600537 -83.72845248 15.85166704 -81.3125 13.0703125 C-78.42244508 9.81326604 -78.42244508 9.81326604 -76.28515625 6.07421875 C-73.66620693 1.44212689 -67.59200814 -1.10223038 -63.1875 -3.8671875 C-62.57519531 -4.28484375 -61.96289062 -4.7025 -61.33203125 -5.1328125 C-41.69469031 -17.85417475 -18.22031652 -11.83330339 0 0 Z " fill="#818181" transform="translate(372.1875,114.8671875)"/>
<path d="M0 0 C4.57835083 3.18493971 6.87060907 7.86108283 8.875 13 C9.0390625 15.85546875 9.0390625 15.85546875 8.875 18 C9.535 18 10.195 18 10.875 18 C11.37 18.99 11.865 19.98 12.375 21 C14.48522686 24.16577474 14.48522686 24.16577474 17.1484375 24.46875 C23.3547949 24.54330084 28.31737366 23.44561489 33.75 20.375 C37.87456473 18.56019152 40.39072988 18.55892425 44.875 19 C47.54931489 20.81163267 47.83420359 21.87761077 48.875 25 C49.06495842 26.57821023 49.21545888 28.1613666 49.33984375 29.74609375 C49.41783203 30.66583984 49.49582031 31.58558594 49.57617188 32.53320312 C49.73338276 34.46520801 49.88704462 36.39750505 50.03710938 38.33007812 C50.15602539 39.71163086 50.15602539 39.71163086 50.27734375 41.12109375 C50.37776978 42.38070923 50.37776978 42.38070923 50.48022461 43.66577148 C50.91519701 46.23767696 51.31206429 47.89656012 52.875 50 C55.28027142 50.65782951 55.28027142 50.65782951 58.109375 50.65234375 C59.15867187 50.70712891 60.20796875 50.76191406 61.2890625 50.81835938 C63.49727894 50.89722425 65.70561577 50.97279327 67.9140625 51.04492188 C77.01394931 51.52884006 77.01394931 51.52884006 80.6328125 54.27734375 C82.875 57 82.875 57 83.3828125 59.2890625 C82.45117164 64.97397307 80.870296 70.07989793 78.81640625 75.4609375 C77.59162061 78.76430127 76.8055465 81.45787132 76.875 85 C79.83007293 89.74602622 82.44396572 91.73696877 87.875 93 C87.875 93.66 87.875 94.32 87.875 95 C88.57625 94.938125 89.2775 94.87625 90 94.8125 C94.65325482 95.11597314 97.70980781 96.79949896 100.9375 100.125 C102.36281776 104.49597448 100.90629476 107.98255035 98.875 112 C97.375 113.77734375 97.375 113.77734375 95.875 115 C92.05495079 114.87266503 89.59623047 112.49446126 86.875 110 C86.875 109.34 86.875 108.68 86.875 108 C85.225 107.67 83.575 107.34 81.875 107 C81.875 106.34 81.875 105.68 81.875 105 C81.28332031 104.81824219 80.69164062 104.63648437 80.08203125 104.44921875 C73.385299 102.31893688 73.385299 102.31893688 70.375 100.4375 C67.29343631 98.66560088 64.45907037 98.28593428 60.9609375 97.8203125 C56.27122508 95.97604357 54.73962184 89.60412393 52.75 85.3125 C49.13538488 77.80118725 44.20679986 72.03470739 38.109375 66.35546875 C36.875 65 36.875 65 36.875 63 C36.215 63 35.555 63 34.875 63 C34.875 62.34 34.875 61.68 34.875 61 C33.885 61 32.895 61 31.875 61 C30.18566078 59.3563186 28.52240076 57.6857124 26.875 56 C23.85534934 53.82585153 21.4038948 52.17629827 17.875 51 C17.545 50.34 17.215 49.68 16.875 49 C14.34766765 48.34444881 14.34766765 48.34444881 11.875 48 C11.875 47.34 11.875 46.68 11.875 46 C11.01777344 45.81824219 10.16054688 45.63648438 9.27734375 45.44921875 C7.56224609 45.07216797 7.56224609 45.07216797 5.8125 44.6875 C4.68714844 44.44386719 3.56179688 44.20023438 2.40234375 43.94921875 C-1.125 43 -1.125 43 -4.54296875 41.4375 C-8.64626046 39.79081369 -12.00620636 39.44941235 -16.375 39.3125 C-17.50023071 39.26561035 -17.50023071 39.26561035 -18.64819336 39.21777344 C-20.13809779 39.15944008 -21.62827484 39.10763016 -23.11865234 39.06298828 C-24.78436871 39.01069395 -26.44913254 38.92903342 -28.11328125 38.83984375 C-37.08166754 38.52683482 -48.17731498 39.63411922 -56.125 44 C-57.259375 44.309375 -58.39375 44.61875 -59.5625 44.9375 C-62.89874271 45.93251976 -65.22890707 47.12145324 -68.125 49 C-68.68703125 49.27070312 -69.2490625 49.54140625 -69.828125 49.8203125 C-73.06643539 51.48352634 -76.11794731 53.42425623 -79.1875 55.375 C-79.81205078 55.76171875 -80.43660156 56.1484375 -81.08007812 56.546875 C-84.48463561 58.71242064 -86.8093391 60.72489082 -89.125 64 C-90.61 64.495 -90.61 64.495 -92.125 65 C-93.13687895 66.65948148 -94.1376546 68.32580562 -95.125 70 C-95.785 70 -96.445 70 -97.125 70 C-97.62 71.98 -97.62 71.98 -98.125 74 C-98.785 74 -99.445 74 -100.125 74 C-100.62 75.98 -100.62 75.98 -101.125 78 C-101.785 78 -102.445 78 -103.125 78 C-103.5271875 79.06154297 -103.5271875 79.06154297 -103.9375 80.14453125 C-105.16844187 83.10446056 -106.61528596 85.86056046 -108.125 88.6875 C-110.52103625 93.40995402 -111.89005346 97.57952953 -112.6953125 102.7890625 C-113.125 105 -113.125 105 -114.6875 108.1875 C-117.38596316 113.93876997 -116.90134685 120.77717988 -117.125 127 C-117.22167969 128.30324219 -117.22167969 128.30324219 -117.3203125 129.6328125 C-117.73032453 137.6963825 -115.26462829 145.3114456 -113.125 153 C-112.88652344 153.94488281 -112.64804688 154.88976562 -112.40234375 155.86328125 C-109.45529735 166.92794051 -103.02900808 176.02478949 -96.125 185 C-95.67125 185.598125 -95.2175 186.19625 -94.75 186.8125 C-91.33904936 191.12106923 -87.09045703 195.51727148 -82.125 198 C-82.125 198.66 -82.125 199.32 -82.125 200 C-81.58875 200.2475 -81.0525 200.495 -80.5 200.75 C-77.51974404 202.31855577 -74.81512652 203.96745997 -72.125 206 C-71.5 208.125 -71.5 208.125 -71.125 210 C-69.1412233 211.28436734 -69.1412233 211.28436734 -67.125 212 C-67.125 212.66 -67.125 213.32 -67.125 214 C-59.29791808 216.95494329 -52.01422543 217.26541135 -43.7644043 217.06445312 C-39.72000677 216.96826653 -36.07693452 216.96001723 -32.125 218 C-32.56935784 221.55486269 -33.2296487 224.2253972 -34.75 227.5 C-36.44969355 231.58083106 -35.85185209 234.62153435 -35.1875 238.9375 C-34.70822232 243.38998962 -34.56432295 245.21694916 -37.203125 248.90234375 C-43.94618878 255 -43.94618878 255 -47.125 255 C-47.125 255.66 -47.125 256.32 -47.125 257 C-53.48886226 257.48952787 -53.48886226 257.48952787 -56.125 255.4609375 C-58.67664624 252.32121653 -60.23344777 249.05264063 -61.875 245.375 C-62.19082031 244.694375 -62.50664062 244.01375 -62.83203125 243.3125 C-65.125 238.28980655 -65.125 238.28980655 -65.125 236 C-66.115 235.67 -67.105 235.34 -68.125 235 C-68.125 234.34 -68.125 233.68 -68.125 233 C-77.18373252 234.14367385 -77.18373252 234.14367385 -85.9375 236.625 C-90.27100952 238.17552175 -93.52191688 238.53702636 -98.125 238 C-100.8203125 236.66015625 -100.8203125 236.66015625 -103.125 234 C-103.82268537 230.33907274 -103.77881987 226.71776314 -103.75 223 C-103.75 221.0207905 -103.76253392 219.0415317 -103.7890625 217.0625 C-103.78060303 215.74958984 -103.78060303 215.74958984 -103.77197266 214.41015625 C-104.20239708 211.47160169 -105.08722852 210.13509253 -107.125 208 C-110.427645 206.89911833 -113.14988194 206.7864546 -116.625 206.625 C-132.52358491 205.60141509 -132.52358491 205.60141509 -136.125 202 C-136.73021682 195.81980511 -136.26658224 191.43735388 -133.125 186 C-130.73099673 178.94399036 -130.46284658 173.98815273 -133.125 167 C-133.84816406 166.87238281 -134.57132813 166.74476563 -135.31640625 166.61328125 C-141.95476115 165.16373783 -148.97074137 162.49345625 -154.125 158 C-155.29118148 154.57434189 -155.30453255 152.67324706 -154.375 149.1875 C-153.125 147 -153.125 147 -150.125 146 C-149.45058869 144.3364521 -148.7849679 142.66933058 -148.125 141 C-146.125 138.6875 -146.125 138.6875 -144.125 137 C-143.465 137 -142.805 137 -142.125 137 C-141.43459426 135.34302621 -140.7719365 133.6744239 -140.125 132 C-139.83625 131.360625 -139.5475 130.72125 -139.25 130.0625 C-139.04450602 126.67184926 -141.19822027 124.66348962 -143.125 122 C-143.455 121.01 -143.785 120.02 -144.125 119 C-145.115 118.67 -146.105 118.34 -147.125 118 C-147.125 117.34 -147.125 116.68 -147.125 116 C-147.785 116 -148.445 116 -149.125 116 C-152.30375042 112.82124958 -153.8678038 110.80016596 -155.25 106.5 C-155.1156834 102.73913533 -154.3836116 101.05831152 -151.77734375 98.34375 C-148.3094921 95.52355859 -144.31769159 93.87441345 -140.1953125 92.23046875 C-136.36639925 90.69397352 -133.46907569 89.46923202 -131.125 86 C-130.06314317 79.39289083 -132.28468979 74.91179165 -134.921875 68.90234375 C-136.5609831 64.94826154 -137.35122701 62.2983132 -137.125 58 C-133.26026729 53.55555738 -129.8905659 52.33373568 -124.125 51 C-121.54380422 50.8928856 -118.95760391 50.8726756 -116.375 50.9375 C-111.15351591 51.1130783 -111.15351591 51.1130783 -106.125 50 C-105.05847053 44.06678268 -104.08878527 38.20677899 -103.6875 32.1875 C-103.30916395 27.51910336 -102.36279907 24.11755029 -100.125 20 C-96.83621382 18.35560691 -93.67808208 18.48126117 -90.125 19 C-86.98702698 20.12447416 -83.98479605 21.41574258 -80.95703125 22.80859375 C-77.28454445 24.35357095 -74.47786612 25.32996735 -70.5625 24.375 C-64.74661524 21.0942445 -62.42220491 14.82228566 -59.76953125 8.99609375 C-58.07086958 5.42198662 -56.69150991 2.8619783 -53.125 1 C-49.46035055 0.6764417 -46.11655347 1.28732094 -43.125 3.4375 C-42.125 5 -42.125 5 -42.125 7 C-41.1659375 7.4021875 -41.1659375 7.4021875 -40.1875 7.8125 C-38.125 9 -38.125 9 -37.125 12 C-35.80011887 12.36548445 -34.46481486 12.6937566 -33.125 13 C-32.50625 13.53625 -31.8875 14.0725 -31.25 14.625 C-29.16183159 16.2394696 -29.16183159 16.2394696 -26.375 16.0625 C-21.06556089 14.32672183 -16.98739628 10.92059616 -13.125 6.9375 C-9.30324207 3.23517201 -5.47449479 0 0 0 Z " fill="#FDCD08" transform="translate(290.125,1)"/>
<path d="M0 0 C0 0.66 0 1.32 0 2 C0.56847656 2.18175781 1.13695312 2.36351562 1.72265625 2.55078125 C15.05556095 6.89120932 15.05556095 6.89120932 19 11 C20.19702145 11.68677037 21.40683904 12.35146491 22.625 13 C26 15 26 15 27 18 C27.99 18.33 28.98 18.66 30 19 C30 19.66 30 20.32 30 21 C31.98 21.99 31.98 21.99 34 23 C34 23.66 34 24.32 34 25 C34.91072266 25.35771484 34.91072266 25.35771484 35.83984375 25.72265625 C38.49603394 27.29331483 39.19911725 28.69723567 40.5625 31.4375 C42.18436931 34.74870396 42.18436931 34.74870396 44.65234375 37.41015625 C46.68906887 39.81290154 46.2021221 41.96816852 46 45 C44.77925781 45.20753906 43.55851563 45.41507813 42.30078125 45.62890625 C31.63665179 47.57563646 23.24045436 50.16035802 14 56 C13.11441406 56.51433594 12.22882813 57.02867188 11.31640625 57.55859375 C7.35965537 60.02072035 4.56928874 63.14606689 2 67 C1.34 67 0.68 67 0 67 C-0.13148438 67.58394531 -0.26296875 68.16789062 -0.3984375 68.76953125 C-1.45993696 72.70535067 -2.62141474 75.54759062 -6 78 C-9.02193022 78.49997872 -11.9345547 78.66453388 -14.9934082 78.73046875 C-26.44813383 79.01867281 -37.70423998 83.16766217 -46.17578125 91.015625 C-48.13175215 93.00516169 -48.13175215 93.00516169 -49.625 95.75 C-50.07875 96.4925 -50.5325 97.235 -51 98 C-51.66 98 -52.32 98 -53 98 C-53.32871094 99.68029297 -53.32871094 99.68029297 -53.6640625 101.39453125 C-53.98304424 102.86747632 -54.30343069 104.34011768 -54.625 105.8125 C-54.76550781 106.55048828 -54.90601563 107.28847656 -55.05078125 108.04882812 C-55.98395219 112.17344368 -56.36242697 113.57577505 -60.0234375 116.01171875 C-63 117 -63 117 -65 117 C-65.66 118.32 -66.32 119.64 -67 121 C-67.66 121 -68.32 121 -69 121 C-69.2475 121.78375 -69.495 122.5675 -69.75 123.375 C-71.33931493 127.98401329 -73.16207173 132.48547716 -75 137 C-76.32 137 -77.64 137 -79 137 C-80.9375 134.8125 -80.9375 134.8125 -83 132 C-83.7425 131.29875 -84.485 130.5975 -85.25 129.875 C-94.64132459 120.05679702 -99.72322267 109.10710933 -103 96 C-103.1662085 95.35579102 -103.33241699 94.71158203 -103.50366211 94.04785156 C-108.43802978 73.72147734 -104.09518835 53.89343777 -94 36 C-93.34 36 -92.68 36 -92 36 C-91.67 34.35 -91.34 32.7 -91 31 C-90.34 31 -89.68 31 -89 31 C-88.72285156 30.41863281 -88.44570312 29.83726563 -88.16015625 29.23828125 C-84.42036224 22.02312311 -78.98232327 16.18939396 -72 12 C-69.22265625 11.30859375 -69.22265625 11.30859375 -67 11 C-66.67 10.01 -66.34 9.02 -66 8 C-62.5065403 6.25327015 -59.93154432 5 -56 5 C-56 4.34 -56 3.68 -56 3 C-40.04409921 -5.82409665 -17.32830759 -2.45667146 0 0 Z " fill="#FECD04" transform="translate(288,52)"/>
<path d="M0 0 C-3.01147228 12.40726577 -3.01147228 12.40726577 -5 18 C-7.19060382 24.40437677 -9.21741824 30.85589414 -11.19848633 37.32763672 C-12.0783334 40.1761025 -12.98992013 42.97490756 -14.1015625 45.7421875 C-15.16086257 48.21673826 -15.16086257 48.21673826 -15.8125 51.875 C-16.85352317 56.19483628 -18.75792544 59.91017756 -22 63 C-27.05303879 64.8098876 -32.94266619 64.84976831 -37.875 62.8125 C-40.46726259 60.6014525 -41.74786701 59.19989543 -43 56 C-42.97293479 49.42484604 -41.08489211 43.21429207 -39.125 37 C-38.74021484 35.74316406 -38.74021484 35.74316406 -38.34765625 34.4609375 C-35.51288064 25.2586006 -32.37130126 16.18640256 -29.0859375 7.13671875 C-28.26187285 4.7564169 -27.54537588 2.45419146 -27 0 C-6.77647059 -1.97647059 -6.77647059 -1.97647059 0 0 Z " fill="#699AF9" transform="translate(324,219)"/>
<path d="M0 0 C7.65486181 0.12456136 15.26057681 0.60669839 22.890625 1.23046875 C22.34427719 6.97676221 21.22577173 11.95827773 19.203125 17.35546875 C18.97173828 18.03222656 18.74035156 18.70898438 18.50195312 19.40625 C16.67185354 24.34704105 14.24917733 28.15144782 9.890625 31.23046875 C6.12060425 32.25009988 2.70493926 32.02705572 -1.109375 31.23046875 C-4.171875 28.85546875 -4.171875 28.85546875 -6.109375 26.23046875 C-6.769375 25.57046875 -7.429375 24.91046875 -8.109375 24.23046875 C-9.48735235 19.09437134 -8.85687083 14.40543989 -8.109375 9.23046875 C-7.119375 9.23046875 -6.129375 9.23046875 -5.109375 9.23046875 C-4.92375 7.55984375 -4.92375 7.55984375 -4.734375 5.85546875 C-3.79632586 0.41478375 -3.79632586 0.41478375 0 0 Z " fill="#689AF9" transform="translate(267.109375,217.76953125)"/>
<path d="M0 0 C1.24426758 -0.00193359 1.24426758 -0.00193359 2.51367188 -0.00390625 C3.37669922 -0.00003906 4.23972656 0.00382813 5.12890625 0.0078125 C5.98806641 0.00394531 6.84722656 0.00007812 7.73242188 -0.00390625 C8.97862305 -0.00197266 8.97862305 -0.00197266 10.25 0 C11.00595459 0.00112793 11.76190918 0.00225586 12.54077148 0.00341797 C14.76462203 0.13721758 16.60475632 0.33879525 18.69140625 1.1328125 C20.01303236 5.09769084 18.96600245 6.50681093 17.37890625 10.3203125 C15.84426971 14.08372635 14.49205112 17.56303946 13.81640625 21.5703125 C12.5298195 25.64450387 11.18013358 27.4960228 7.82421875 30.05859375 C3.84502734 32.06276525 -0.01088862 32.1307542 -4.30859375 31.1328125 C-7.30859375 28.7578125 -7.30859375 28.7578125 -9.30859375 26.1328125 C-9.96859375 25.4728125 -10.62859375 24.8128125 -11.30859375 24.1328125 C-13.382943 15.83541549 -11.06651944 8.64866387 -7.30859375 1.1328125 C-4.53762878 0.20915751 -2.85998702 0.00427365 0 0 Z " fill="#689AF7" transform="translate(340.30859375,217.8671875)"/>
<path d="M0 0 C3.59265709 1.65814943 6.84150442 3.61358111 10 6 C10.625 8.125 10.625 8.125 11 10 C12.9837767 11.28436734 12.9837767 11.28436734 15 12 C15 12.66 15 13.32 15 14 C22.82708192 16.95494329 30.11077457 17.26541135 38.3605957 17.06445312 C42.40499323 16.96826653 46.04806548 16.96001723 50 18 C49.55564216 21.55486269 48.8953513 24.2253972 47.375 27.5 C44.97934337 33.42548887 46.27865091 39.81204156 47 46 C46.01 46.66 45.02 47.32 44 48 C43.11173825 40.81191259 42.98797712 34.17757765 44 27 C44.66 27 45.32 27 46 27 C46.33 24.69 46.66 22.38 47 20 C46.35039307 20.01571045 45.70078613 20.0314209 45.03149414 20.04760742 C42.04192069 20.11059337 39.05248751 20.14919021 36.0625 20.1875 C35.04091797 20.21263672 34.01933594 20.23777344 32.96679688 20.26367188 C26.40180496 20.32659512 21.0660915 19.5512675 15 17 C15 16.34 15 15.68 15 15 C14.34 15 13.68 15 13 15 C13 14.34 13 13.68 13 13 C11.68 13 10.36 13 9 13 C8.5875 11.88625 8.175 10.7725 7.75 9.625 C6.64453484 7.00679305 6.25119213 6.16506911 3.8125 4.5625 C3.214375 4.376875 2.61625 4.19125 2 4 C2 3.34 2 2.68 2 2 C1.34 2 0.68 2 0 2 C0 1.34 0 0.68 0 0 Z " fill="#EECB4B" transform="translate(208,201)"/>
<path d="M0 0 C0.66 0.33 1.32 0.66 2 1 C1.3503125 1.5878125 1.3503125 1.5878125 0.6875 2.1875 C-1.1287076 4.00599296 -1.1287076 4.00599296 -2.5 6.5625 C-4 9 -4 9 -7 11 C-7.33 11.99 -7.66 12.98 -8 14 C-8.99 14 -9.98 14 -11 14 C-10.34 14.33 -9.68 14.66 -9 15 C-10.28519565 17.86697492 -11.57129254 19.97607712 -14 22 C-14.66 22 -15.32 22 -16 22 C-15.938125 23.11375 -15.938125 23.11375 -15.875 24.25 C-16.00898559 27.19768287 -16.2761294 28.61941678 -18 31 C-20.625 32.25 -20.625 32.25 -23 33 C-21.58707905 28.1725201 -19.57025846 24.2837641 -17 20 C-16.34 20 -15.68 20 -15 20 C-14.67 18.35 -14.34 16.7 -14 15 C-13.34 15 -12.68 15 -12 15 C-11.72929687 14.42378906 -11.45859375 13.84757812 -11.1796875 13.25390625 C-9.98725121 10.97564222 -8.65862379 8.99954856 -7.125 6.9375 C-6.63257813 6.26589844 -6.14015625 5.59429687 -5.6328125 4.90234375 C-3.92676882 2.91468042 -2.14550281 1.4907065 0 0 Z " fill="#F7D13E" transform="translate(211,68)"/>
<path d="M0 0 C4.11031855 1.43710404 8.05573743 3.15934413 12 5 C12 5.33 12 5.66 12 6 C6.49191603 5.40984815 1.35121931 4.43336231 -4 3 C-4 2.34 -4 1.68 -4 1 C-5.65 1.33 -7.3 1.66 -9 2 C-9.60772978 5.91060902 -10.08689008 9.78830065 -10.39453125 13.734375 C-10.46349609 14.55550781 -10.53246094 15.37664063 -10.60351562 16.22265625 C-10.74404627 17.92215767 -10.87143662 19.62279174 -10.98632812 21.32421875 C-11.54115962 27.54029552 -11.54115962 27.54029552 -14.07421875 30.078125 C-14.70972656 30.38234375 -15.34523437 30.6865625 -16 31 C-15.86722656 30.26136719 -15.73445312 29.52273437 -15.59765625 28.76171875 C-14.69304106 23.56513367 -13.913528 18.45292004 -13.5625 13.1875 C-13.18416395 8.51910336 -12.23779907 5.11755029 -10 1 C-6.71021906 -0.64489047 -3.55353887 -0.52030008 0 0 Z " fill="#F4DA5A" transform="translate(200,20)"/>
<path d="M0 0 C0.92103516 0.12979248 1.84207031 0.25958496 2.79101562 0.39331055 C9.41161202 1.42024134 9.41161202 1.42024134 12.8125 3.6875 C12.8125 4.3475 12.8125 5.0075 12.8125 5.6875 C11.82765625 5.37039062 10.8428125 5.05328125 9.828125 4.7265625 C5.74058114 3.56192061 1.79403292 3.24622875 -2.4375 3.0625 C-3.18112793 3.02527832 -3.92475586 2.98805664 -4.69091797 2.94970703 C-12.93505403 2.56223085 -21.03156626 2.23755622 -29.1875 3.6875 C-29.5175 3.0275 -29.8475 2.3675 -30.1875 1.6875 C-20.52626085 -2.62809028 -10.18296658 -1.44037678 0 0 Z " fill="#F7CD25" transform="translate(276.1875,37.3125)"/>
<path d="M0 0 C0.99773437 0.02320313 1.99546875 0.04640625 3.0234375 0.0703125 C4.52777344 0.09738281 4.52777344 0.09738281 6.0625 0.125 C6.83335937 0.14820313 7.60421875 0.17140625 8.3984375 0.1953125 C8.3984375 1.1853125 8.3984375 2.1753125 8.3984375 3.1953125 C5.0984375 3.1953125 1.7984375 3.1953125 -1.6015625 3.1953125 C-1.2715625 4.1853125 -0.9415625 5.1753125 -0.6015625 6.1953125 C-1.2203125 6.7315625 -1.8390625 7.2678125 -2.4765625 7.8203125 C-5.37770789 11.06276911 -6.71161409 13.93721691 -6.49609375 18.359375 C-6.25793781 20.31294405 -5.93594476 22.25589537 -5.6015625 24.1953125 C-6.5915625 23.8653125 -7.5815625 23.5353125 -8.6015625 23.1953125 C-9.99307902 18.40231117 -9.28818939 14.04395468 -8.6015625 9.1953125 C-7.6115625 9.1953125 -6.6215625 9.1953125 -5.6015625 9.1953125 C-5.4159375 7.5246875 -5.4159375 7.5246875 -5.2265625 5.8203125 C-4.52302195 1.73977732 -4.26140123 0.31992502 0 0 Z " fill="#86A3D9" transform="translate(267.6015625,217.8046875)"/>
<path d="M0 0 C1.45489101 4.47208109 -0.03886361 6.7871885 -2 11 C-2.2475 11.969375 -2.495 12.93875 -2.75 13.9375 C-4.57486731 18.40842491 -7.70392239 21.52766155 -11 25 C-11.33 24.34 -11.66 23.68 -12 23 C-13.98 23 -15.96 23 -18 23 C-18.33 22.01 -18.66 21.02 -19 20 C-17.783125 19.95875 -16.56625 19.9175 -15.3125 19.875 C-11.95053821 19.41413353 -11.07044546 19.06038183 -8.375 16.75 C-4.73212912 11.7021994 -2.45467275 5.68539324 0 0 Z " fill="#F7D338" transform="translate(232,6)"/>
<path d="M0 0 C1.13419605 3.50415794 0.9565119 6.47836911 0.625 10.125 C0.53476563 11.17945312 0.44453125 12.23390625 0.3515625 13.3203125 C0 16 0 16 -1 18 C-1.15306901 19.81171098 -1.24946661 21.6283794 -1.31640625 23.4453125 C-1.35830078 24.52167969 -1.40019531 25.59804687 -1.44335938 26.70703125 C-1.50233398 28.39892578 -1.50233398 28.39892578 -1.5625 30.125 C-1.60568359 31.26066406 -1.64886719 32.39632812 -1.69335938 33.56640625 C-1.7996604 36.37747768 -1.90169405 39.18863945 -2 42 C-2.33 42 -2.66 42 -3 42 C-6.45953834 28.16184664 -3.89398291 13.42033395 0 0 Z " fill="#F6D452" transform="translate(187,102)"/>
<path d="M0 0 C2.0625 0.4375 2.0625 0.4375 4 1 C3.34 1 2.68 1 2 1 C1.86851562 1.58394531 1.73703125 2.16789062 1.6015625 2.76953125 C0.54006304 6.70535067 -0.62141474 9.54759062 -4 12 C-7.68827916 12.61022624 -11.24392828 12.69180884 -14.98046875 12.7578125 C-20.10262615 12.92859233 -24.67129282 14.49524389 -29.48828125 16.16015625 C-32 17 -32 17 -34 17 C-34 16.34 -34 15.68 -34 15 C-27.67220613 10.78147076 -21.5061805 10.61503839 -14.125 10.375 C-13.15046875 10.33632812 -12.1759375 10.29765625 -11.171875 10.2578125 C-8.7814328 10.16406967 -6.39098756 10.0783617 -4 10 C-3.79503906 9.36191406 -3.59007812 8.72382812 -3.37890625 8.06640625 C-3.10949219 7.24011719 -2.84007812 6.41382812 -2.5625 5.5625 C-2.29566406 4.73878906 -2.02882813 3.91507812 -1.75390625 3.06640625 C-1 1 -1 1 0 0 Z " fill="#F6D262" transform="translate(286,118)"/>
<path d="M0 0 C-0.0625 3.25 -0.0625 3.25 -1 7 C-3.91590934 9.53361789 -7.35981159 10.78660386 -11 12 C-11 14.64 -11 17.28 -11 20 C-9.68 20.33 -8.36 20.66 -7 21 C-7 21.66 -7 22.32 -7 23 C-9.4375 22.375 -9.4375 22.375 -12 21 C-13.12127363 17.6361791 -13.16285878 15.61072042 -12.25 12.1875 C-11 10 -11 10 -8 9 C-7.32558869 7.3364521 -6.6599679 5.66933058 -6 4 C-2.54054054 0 -2.54054054 0 0 0 Z " fill="#F7CD12" transform="translate(148,138)"/>
<path d="M0 0 C2 2 2 2 2.125 5.125 C2.08375 6.07375 2.0425 7.0225 2 8 C1.44538086 8.11593506 0.89076172 8.23187012 0.31933594 8.35131836 C-2.20394445 8.87924434 -4.72697388 9.40836027 -7.25 9.9375 C-8.12269531 10.11990234 -8.99539063 10.30230469 -9.89453125 10.49023438 C-10.73886719 10.66748047 -11.58320313 10.84472656 -12.453125 11.02734375 C-13.61569824 11.27085571 -13.61569824 11.27085571 -14.80175781 11.51928711 C-16.87936437 11.97361933 -18.93984981 12.4726508 -21 13 C-20.67 12.01 -20.34 11.02 -20 10 C-17.92578125 9.12109375 -17.92578125 9.12109375 -15.3125 8.4375 C-12.34150352 7.63647527 -9.51578112 6.82065967 -6.625 5.75 C-3.89565814 4.97018804 -2.61577273 4.99393357 0 6 C0 4.02 0 2.04 0 0 Z " fill="#F7D03B" transform="translate(332,89)"/>
<path d="M0 0 C0.66 0 1.32 0 2 0 C1.41495816 4.79734307 -0.09499468 8.58038767 -2 13 C-2.33343435 14.41188605 -2.64598547 15.82886666 -2.9375 17.25 C-4 21 -4 21 -6.125 23 C-6.74375 23.33 -7.3625 23.66 -8 24 C-7.50061528 20.80393782 -6.63688509 17.98714778 -5.4375 15 C-4.21707419 11.87191831 -3.68147432 9.39760728 -4 6 C-4.66 5.67 -5.32 5.34 -6 5 C-4.35 4.67 -2.7 4.34 -1 4 C-0.67 2.68 -0.34 1.36 0 0 Z " fill="#80A2EC" transform="translate(357,222)"/>
<path d="M0 0 C0.66 0.33 1.32 0.66 2 1 C1.57405412 2.44096586 1.13373367 3.87768712 0.6875 5.3125 C0.44386719 6.11300781 0.20023437 6.91351563 -0.05078125 7.73828125 C-1.05246872 10.12501805 -1.98433105 11.39579836 -4 13 C-7.82004921 12.87266503 -10.27876953 10.49446126 -13 8 C-13 7.34 -13 6.68 -13 6 C-14.65 5.67 -16.3 5.34 -18 5 C-18 4.34 -18 3.68 -18 3 C-18.66 2.67 -19.32 2.34 -20 2 C-18.68 2 -17.36 2 -16 2 C-16 2.66 -16 3.32 -16 4 C-15.071875 4.268125 -14.14375 4.53625 -13.1875 4.8125 C-10.17554236 5.93460187 -9.03652504 6.6579962 -7 9 C-6.34 9.33 -5.68 9.66 -5 10 C-5 9.34 -5 8.68 -5 8 C-3.625 6.375 -3.625 6.375 -2 5 C-1.34 5 -0.68 5 0 5 C0 3.35 0 1.7 0 0 Z " fill="#F0D553" transform="translate(390,103)"/>
<path d="M0 0 C0.99 0.33 1.98 0.66 3 1 C3 2.32 3 3.64 3 5 C3.66 5 4.32 5 5 5 C5.37058824 10.55882353 5.37058824 10.55882353 3.6875 12.5625 C3.130625 13.036875 2.57375 13.51125 2 14 C1.3503125 15.2684375 1.3503125 15.2684375 0.6875 16.5625 C-1.52187032 19.75381268 -3.24853543 20.23439499 -7 21 C-9.19140625 20.5390625 -9.19140625 20.5390625 -11 20 C-10.20335937 19.63648438 -10.20335937 19.63648438 -9.390625 19.265625 C-3.45088764 16.57180168 -3.45088764 16.57180168 1 12 C1.57787949 7.94646848 1.29860736 3.89582209 0 0 Z " fill="#F6D647" transform="translate(158,75)"/>
<path d="M0 0 C0.66 0 1.32 0 2 0 C4.91485272 5.72039847 4.74857436 12.14730175 5.2109375 18.42773438 C5.28570312 19.33974609 5.36046875 20.25175781 5.4375 21.19140625 C5.49808594 22.01842041 5.55867188 22.84543457 5.62109375 23.69750977 C6.02131467 26.12952234 6.78900205 27.8669644 8 30 C6 28.75 6 28.75 4 27 C4 25.68 4 24.36 4 23 C3.34 23 2.68 23 2 23 C2 16.4 2 9.8 2 3 C1.34 3 0.68 3 0 3 C0 2.01 0 1.02 0 0 Z " fill="#F4D24F" transform="translate(335,21)"/>
<path d="M0 0 C-0.44962196 1.96035175 -0.90998248 3.91824309 -1.375 5.875 C-1.75785156 7.51082031 -1.75785156 7.51082031 -2.1484375 9.1796875 C-3 12 -3 12 -5 14 C-5.20512828 10.30769095 -4.72405582 8.23260467 -3 5 C-3 4.01 -3 3.02 -3 2 C-4.19238281 2.02320313 -5.38476562 2.04640625 -6.61328125 2.0703125 C-8.17968124 2.08907178 -9.746088 2.10727181 -11.3125 2.125 C-12.09818359 2.14175781 -12.88386719 2.15851563 -13.69335938 2.17578125 C-14.45068359 2.18222656 -15.20800781 2.18867188 -15.98828125 2.1953125 C-17.03302612 2.21102295 -17.03302612 2.21102295 -18.09887695 2.22705078 C-20 2 -20 2 -23 0 C-15.50232747 -1.13172416 -7.38037447 -2.17272706 0 0 Z " fill="#A1B5D9" transform="translate(324,219)"/>
<path d="M0 0 C0.33 0.66 0.66 1.32 1 2 C1.66 2.33 2.32 2.66 3 3 C2.01 4.485 2.01 4.485 1 6 C0.60612212 8.32387947 0.26513915 10.65793749 0 13 C-0.66 13 -1.32 13 -2 13 C-1.67 16.96 -1.34 20.92 -1 25 C-4 23 -4 23 -5 19.25 C-5.61242664 12.44649682 -2.53627101 6.16954506 0 0 Z " fill="#87A7E7" transform="translate(333,219)"/>
<path d="M0 0 C0.99 0.495 0.99 0.495 2 1 C1.95359375 1.53625 1.9071875 2.0725 1.859375 2.625 C1.52334898 9.92156505 3.12966547 16.29484307 5.02734375 23.265625 C5.87242952 26.51021132 6.51114634 29.68608678 7 33 C2.0534132 29.70227547 1.49975834 23.7910852 0.34423828 18.19775391 C-0.59802479 12.18197225 -0.28670635 6.06065377 0 0 Z " fill="#F4D355" transform="translate(171,127)"/>
<path d="M0 0 C-2.20291604 2.20291604 -2.98914538 2.36100608 -5.9375 2.9375 C-9.28352604 3.68975405 -10.63119607 4.51839588 -13 7 C-15.6875 7.1875 -15.6875 7.1875 -18 7 C-18 7.66 -18 8.32 -18 9 C-20.31 9.33 -22.62 9.66 -25 10 C-22.48169253 6.87729874 -21.2738451 6.05476902 -17.25 5.25 C-15.64125 5.12625 -15.64125 5.12625 -14 5 C-14 4.34 -14 3.68 -14 3 C-8.99067246 -0.00559652 -5.67276511 -0.29341888 0 0 Z " fill="#F4D755" transform="translate(246,52)"/>
<path d="M0 0 C4.95 0.33 9.9 0.66 15 1 C15 1.66 15 2.32 15 3 C17.97 3.99 20.94 4.98 24 6 C20.16380575 6.95904856 18.67568464 6.91892116 15 6 C15 5.34 15 4.68 15 4 C14.01 4.061875 13.02 4.12375 12 4.1875 C7.53111789 4.21491645 4.08695392 2.7208227 0 1 C0 0.67 0 0.34 0 0 Z " fill="#F5D44D" transform="translate(273,51)"/>
<path d="M0 0 C0.33 0 0.66 0 1 0 C1.33 2.31 1.66 4.62 2 7 C2.66 7 3.32 7 4 7 C4.33 8.32 4.66 9.64 5 11 C5.66 11 6.32 11 7 11 C7 11.66 7 12.32 7 13 C7.639375 13.226875 8.27875 13.45375 8.9375 13.6875 C11 15 11 15 11.75 17.625 C11.8325 18.40875 11.915 19.1925 12 20 C11.34 19.67 10.68 19.34 10 19 C10 18.34 10 17.68 10 17 C9.01 16.67 8.02 16.34 7 16 C7 15.34 7 14.68 7 14 C6.34 14 5.68 14 5 14 C0.82643256 9.82643256 -0.76089879 7.0970809 -1 1 C-0.67 0.67 -0.34 0.34 0 0 Z " fill="#F5D759" transform="translate(136,103)"/>
<path d="M0 0 C3.3989732 3.2990034 6.52978744 6.71936769 9.5703125 10.3515625 C10.98125352 11.9783852 12.45964664 13.49610471 14 15 C13.01 15.33 12.02 15.66 11 16 C9.33333333 14.33333333 7.66666667 12.66666667 6 11 C5.4225 10.46375 4.845 9.9275 4.25 9.375 C3 8 3 8 2 5 C1.34 4.67 0.68 4.34 0 4 C0 2.68 0 1.36 0 0 Z " fill="#F3D553" transform="translate(188,180)"/>
<path d="M0 0 C2.4375 0.375 2.4375 0.375 5 1 C6.4783226 3.95664519 6.06032783 6.74229737 6 10 C5.34 10 4.68 10 4 10 C3.67 10.99 3.34 11.98 3 13 C2.01 13.33 1.02 13.66 0 14 C0 12.68 0 11.36 0 10 C0.66 10 1.32 10 2 10 C2 9.34 2 8.68 2 8 C2.66 8 3.32 8 4 8 C2.88145414 4.27385847 2.88145414 4.27385847 0 2 C0 1.34 0 0.68 0 0 Z " fill="#FBCB0E" transform="translate(384,98)"/>
<path d="M0 0 C4.29 0 8.58 0 13 0 C12.67 2.64 12.34 5.28 12 8 C11.67 8 11.34 8 11 8 C10.67 6.35 10.34 4.7 10 3 C8.35 3.33 6.7 3.66 5 4 C5 3.34 5 2.68 5 2 C3.35 2.33 1.7 2.66 0 3 C0 2.01 0 1.02 0 0 Z " fill="#7297DE" transform="translate(277,219)"/>
<path d="M0 0 C2.64 0 5.28 0 8 0 C6.66666667 0.66666667 5.33333333 1.33333333 4 2 C3.401875 2.33 2.80375 2.66 2.1875 3 C0 4 0 4 -3.4375 4.9375 C-6.73766838 5.92176074 -9.1530048 7.1020032 -12 9 C-12.66 8.34 -13.32 7.68 -14 7 C-12.68 7 -11.36 7 -10 7 C-10 6.34 -10 5.68 -10 5 C-7.52653696 2.52653696 -6.29238832 2.01686856 -2.75 1.8125 C-1.38875 1.9053125 -1.38875 1.9053125 0 2 C0 1.34 0 0.68 0 0 Z " fill="#F5D657" transform="translate(234,41)"/>
<path d="M0 0 C2.475 0.495 2.475 0.495 5 1 C5 1.66 5 2.32 5 3 C9.29 3 13.58 3 18 3 C13.3344682 5.3327659 10.11317574 5.60957789 5 5 C1.9375 3.625 1.9375 3.625 0 2 C0 1.34 0 0.68 0 0 Z " fill="#86A7E5" transform="translate(284,278)"/>
<path d="M0 0 C1.32 0 2.64 0 4 0 C4.226875 0.61875 4.45375 1.2375 4.6875 1.875 C5.82987616 4.25049201 5.82987616 4.25049201 8.5 4.75 C11 6 11 6 11.76953125 7.8984375 C12.26108629 9.91416679 12.63755082 11.95710463 13 14 C8.90872127 10.86018144 5.93509667 7.845762 3.078125 3.55078125 C1.95350008 1.83553029 1.95350008 1.83553029 0 0 Z " fill="#F6D342" transform="translate(327,65)"/>
<path d="M0 0 C3.87302138 1.14430177 7.00263439 2.23320098 10 5 C10 5.66 10 6.32 10 7 C10.99 7.33 11.98 7.66 13 8 C13 8.66 13 9.32 13 10 C14.32 10.66 15.64 11.32 17 12 C16.67 12.66 16.34 13.32 16 14 C15.34 13.67 14.68 13.34 14 13 C14 12.34 14 11.68 14 11 C13.38125 10.9175 12.7625 10.835 12.125 10.75 C11.42375 10.5025 10.7225 10.255 10 10 C9.71125 9.3709375 9.4225 8.741875 9.125 8.09375 C7.73102972 5.49941642 6.52624112 4.9473347 3.875 3.75 C3.15054687 3.41484375 2.42609375 3.0796875 1.6796875 2.734375 C1.12539063 2.49203125 0.57109375 2.2496875 0 2 C0 1.34 0 0.68 0 0 Z " fill="#F3D765" transform="translate(305,63)"/>
<path d="M0 0 C0 2 0 4 0 6 C-0.66 6 -1.32 6 -2 6 C-2 6.66 -2 7.32 -2 8 C-3.98 8.66 -5.96 9.32 -8 10 C-7.44449305 6.40094092 -6.25112752 5.00090201 -3.4375 2.75 C-2.79683594 2.22921875 -2.15617188 1.7084375 -1.49609375 1.171875 C-1.00238281 0.78515625 -0.50867188 0.3984375 0 0 Z " fill="#949C94" transform="translate(250,146)"/>
<path d="M0 0 C1.18008373 3.68776165 1 7.15372354 1 11 C1.29692012 13.33824592 1.62020847 15.67377689 2 18 C0 17 0 17 -0.921875 14.41796875 C-1.19515625 13.35191406 -1.4684375 12.28585938 -1.75 11.1875 C-2.03359375 10.12917969 -2.3171875 9.07085937 -2.609375 7.98046875 C-3.03037055 4.76827269 -2.79090804 3.63116284 -1 1 C-0.67 0.67 -0.34 0.34 0 0 Z " fill="#F6D958" transform="translate(156,56)"/>
<path d="M0 0 C1.65 0.33 3.3 0.66 5 1 C3.26929299 3.15199754 2.39380767 3.93393358 -0.375 4.3984375 C-1.24125 4.39070312 -2.1075 4.38296875 -3 4.375 C-3.86625 4.38273438 -4.7325 4.39046875 -5.625 4.3984375 C-8 4 -8 4 -11 1 C-7.37 1.33 -3.74 1.66 0 2 C0 1.34 0 0.68 0 0 Z " fill="#97B4ED" transform="translate(344,245)"/>
<path d="M0 0 C0.66 0 1.32 0 2 0 C2.33 1.32 2.66 2.64 3 4 C2.34 4 1.68 4 1 4 C1 4.99 1 5.98 1 7 C-0.96722008 8.38123963 -2.96868328 9.71488126 -5 11 C-5.33 11.66 -5.66 12.32 -6 13 C-6.66 12.67 -7.32 12.34 -8 12 C-7.59007812 11.46890625 -7.18015625 10.9378125 -6.7578125 10.390625 C-6.21898437 9.68421875 -5.68015625 8.9778125 -5.125 8.25 C-4.59132813 7.55390625 -4.05765625 6.8578125 -3.5078125 6.140625 C-2.10761086 4.15277397 -1.02144735 2.20156614 0 0 Z " fill="#9A9B9A" transform="translate(297,119)"/>
<path d="M0 0 C1.32 0.33 2.64 0.66 4 1 C3.31292969 1.45890625 2.62585938 1.9178125 1.91796875 2.390625 C1.01691406 3.00421875 0.11585938 3.6178125 -0.8125 4.25 C-1.70582031 4.85328125 -2.59914062 5.4565625 -3.51953125 6.078125 C-5.85635188 7.88870098 -7.37157462 9.55465691 -9 12 C-9.99 11.67 -10.98 11.34 -12 11 C-11.01 10.67 -10.02 10.34 -9 10 C-9 8.68 -9 7.36 -9 6 C-6.35261084 4.5393715 -5.10551666 4 -2 4 C-2 3.34 -2 2.68 -2 2 C-1.34 2 -0.68 2 0 2 C0 1.34 0 0.68 0 0 Z " fill="#F5D758" transform="translate(210,53)"/>
<path d="M0 0 C1.00767752 3.2171038 0.96969457 5.72953704 0.5625 9.0625 C0.24245906 11.75651553 0 14.28235441 0 17 C-0.99 16.67 -1.98 16.34 -3 16 C-3.32712342 9.86946489 -3.39366878 5.37330889 0 0 Z " fill="#F4D64F" transform="translate(157,187)"/>
<path d="M0 0 C1.9375 0.375 1.9375 0.375 4 1 C5.59220976 4.18441952 5.3976617 7.5337155 5 11 C3.5 14 3.5 14 2 16 C0.75282531 13.50565062 1.12780823 12.41004318 1.5625 9.6875 C2.05412765 5.8773857 1.89442077 3.45453199 0 0 Z " fill="#F5D85D" transform="translate(157,169)"/>
<path d="M0 0 C10.55808656 0.77904328 10.55808656 0.77904328 15 3 C15 3.66 15 4.32 15 5 C16.65 5 18.3 5 20 5 C20.33 5.99 20.66 6.98 21 8 C18.13553397 7.38663752 15.86716692 6.4817594 13.3125 5.0625 C9.01981288 2.83935695 4.73789671 1.83351887 0 1 C0 0.67 0 0.34 0 0 Z " fill="#F4D65E" transform="translate(349,97)"/>
<path d="M0 0 C0.99 0.66 1.98 1.32 3 2 C2.61020794 8.55925943 1.57886807 13.94526627 -1 20 C-1.33 20 -1.66 20 -2 20 C-2.25 14.375 -2.25 14.375 0 11 C0.24187651 8.25481679 0.24187651 8.25481679 0.125 5.3125 C0.10695313 4.31863281 0.08890625 3.32476562 0.0703125 2.30078125 C0.04710937 1.54152344 0.02390625 0.78226563 0 0 Z " fill="#F4D963" transform="translate(370,56)"/>
<path d="M0 0 C2.64 0.33 5.28 0.66 8 1 C7.38125 1.0825 6.7625 1.165 6.125 1.25 C3.32494581 2.23825442 3.25886068 3.40359985 2 6 C-0.125 7.25 -0.125 7.25 -2 8 C-2.6875 6.25 -2.6875 6.25 -3 4 C-1.5625 1.75 -1.5625 1.75 0 0 Z " fill="#FAD124" transform="translate(216,46)"/>
<path d="M0 0 C0.99 0.495 0.99 0.495 2 1 C4.04055005 1.07065617 6.08334257 1.08421976 8.125 1.0625 C9.22070312 1.05347656 10.31640625 1.04445313 11.4453125 1.03515625 C12.28835938 1.02355469 13.13140625 1.01195313 14 1 C13.67 1.66 13.34 2.32 13 3 C12.34 3 11.68 3 11 3 C11 3.66 11 4.32 11 5 C3.5340751 5.36717663 3.5340751 5.36717663 1 3.625 C0 2 0 2 0 0 Z " fill="#F6D13F" transform="translate(303,24)"/>
<path d="M0 0 C0.33 0 0.66 0 1 0 C0.88490339 1.41750563 0.75746342 2.83401169 0.625 4.25 C0.55539063 5.03890625 0.48578125 5.8278125 0.4140625 6.640625 C-0.02861886 9.16307352 -0.57878765 10.86818147 -2 13 C-5.625 14.25 -5.625 14.25 -9 15 C-9 14.34 -9 13.68 -9 13 C-6 11 -6 11 -2 11 C-2 9.02 -2 7.04 -2 5 C-1.34 5 -0.68 5 0 5 C0 3.35 0 1.7 0 0 Z " fill="#F0D45B" transform="translate(232,154)"/>
<path d="M0 0 C0.66 0 1.32 0 2 0 C2 0.66 2 1.32 2 2 C2.66 2 3.32 2 4 2 C2.63408831 5.54243452 1.09068516 8.92627929 -0.625 12.3125 C-1.07101563 13.19550781 -1.51703125 14.07851562 -1.9765625 14.98828125 C-2.48316406 15.98408203 -2.48316406 15.98408203 -3 17 C-4 14 -4 14 -3.22265625 12.16796875 C-2.83980469 11.51441406 -2.45695313 10.86085938 -2.0625 10.1875 C-0.14876856 6.62966939 0.40979216 4.09792157 0 0 Z " fill="#F5D557" transform="translate(182,79)"/>
<path d="M0 0 C3.43742918 -0.05802698 6.87473253 -0.09360486 10.3125 -0.125 C11.28896484 -0.14175781 12.26542969 -0.15851562 13.27148438 -0.17578125 C14.20927734 -0.18222656 15.14707031 -0.18867187 16.11328125 -0.1953125 C16.97735596 -0.20578613 17.84143066 -0.21625977 18.73168945 -0.22705078 C21 0 21 0 24 2 C24 2.66 24 3.32 24 4 C23.02933594 3.68289062 22.05867188 3.36578125 21.05859375 3.0390625 C16.74415704 1.8063663 12.52758912 1.55865405 8.0625 1.375 C7.28326172 1.33632813 6.50402344 1.29765625 5.70117188 1.2578125 C3.80112621 1.16455873 1.90059722 1.08124038 0 1 C0 0.67 0 0.34 0 0 Z " fill="#F8D44B" transform="translate(265,39)"/>
<path d="M0 0 C1.55355152 0.2071402 3.10615632 0.42810806 4.6484375 0.70703125 C9.72649818 1.33968001 14.89111106 1.06914286 20 1 C20 1.33 20 1.66 20 2 C12.10937288 3.98410353 5.89062712 3.98410353 -2 2 C-1.34 1.34 -0.68 0.68 0 0 Z " fill="#648BDE" transform="translate(300,219)"/>
<path d="M0 0 C0.845625 0.144375 1.69125 0.28875 2.5625 0.4375 C1.1875 1.9375 1.1875 1.9375 -0.4375 3.4375 C-1.0975 3.4375 -1.7575 3.4375 -2.4375 3.4375 C-2.7675 4.0975 -3.0975 4.7575 -3.4375 5.4375 C-4.0975 5.4375 -4.7575 5.4375 -5.4375 5.4375 C-7.14430947 7.06303283 -8.81410195 8.72865995 -10.4375 10.4375 C-10.4375 6.79862192 -9.77506705 6.29252052 -7.3125 3.75 C-4.61443825 1.13436377 -3.84804502 0.48975118 0 0 Z " fill="#9C9C9A" transform="translate(233.4375,171.5625)"/>
<path d="M0 0 C0.66 0 1.32 0 2 0 C2.33 0.99 2.66 1.98 3 3 C4.65 2.67 6.3 2.34 8 2 C7.42415568 4.38564077 6.77772405 6.66682784 6 9 C6.66 9.33 7.32 9.66 8 10 C7.01 10 6.02 10 5 10 C2.55060653 6.83019669 0.61609051 4.00458831 0 0 Z " fill="#F8D54B" transform="translate(190,162)"/>
<path d="M0 0 C0.66 0 1.32 0 2 0 C1.67 0.99 1.34 1.98 1 3 C0.34 3 -0.32 3 -1 3 C-1 5.64 -1 8.28 -1 11 C0.32 11.33 1.64 11.66 3 12 C3 12.66 3 13.32 3 14 C0.5625 13.375 0.5625 13.375 -2 12 C-3.14019099 8.57942703 -3.19690236 6.63290045 -2.125 3.1875 C-1 1 -1 1 0 0 Z " fill="#F4D870" transform="translate(138,147)"/>
<path d="M0 0 C-2.27594329 2.27594329 -3.2905621 2.45278553 -6.375 3.0625 C-9.27017212 3.64831242 -12.13934599 4.26197739 -15 5 C-14.67 4.01 -14.34 3.02 -14 2 C-9.24983365 -0.2012966 -5.11918146 -0.1765235 0 0 Z " fill="#F1D352" transform="translate(326,97)"/>
<path d="M0 0 C0.53625 0.45375 1.0725 0.9075 1.625 1.375 C4.31698302 3.21688312 6.88520388 4.07971933 10 5 C10 5.66 10 6.32 10 7 C6.7 7 3.4 7 0 7 C0.33 6.01 0.66 5.02 1 4 C0.61067144 1.85744207 0.61067144 1.85744207 0 0 Z " fill="#F6D441" transform="translate(368,89)"/>
<path d="M0 0 C0 0.33 0 0.66 0 1 C-1.11375 1.103125 -2.2275 1.20625 -3.375 1.3125 C-4.57125 1.539375 -5.7675 1.76625 -7 2 C-7.99 3.485 -7.99 3.485 -9 5 C-11.1640625 5.29296875 -11.1640625 5.29296875 -13.625 5.1875 C-14.44226563 5.16042969 -15.25953125 5.13335938 -16.1015625 5.10546875 C-17.04128906 5.05326172 -17.04128906 5.05326172 -18 5 C-17.39671875 4.70351563 -16.7934375 4.40703125 -16.171875 4.1015625 C-14.49917835 3.25318039 -12.86470581 2.32914434 -11.25 1.375 C-7.1637787 -0.35378593 -4.40059548 -0.22761701 0 0 Z " fill="#F8DC61" transform="translate(335,20)"/>
<path d="M0 0 C0 0.99 0 1.98 0 3 C-2.87501211 5.07639763 -5.51375944 6.3543999 -9 7 C-7.16766277 2.5718517 -4.96404317 0 0 0 Z " fill="#F6D344" transform="translate(146,96)"/>
<path d="M0 0 C1.24643378 3.49960254 0.78889218 5.29073361 -0.75 8.625 C-1.09546875 9.40101562 -1.4409375 10.17703125 -1.796875 10.9765625 C-3 13 -3 13 -6 15 C-4.64475824 9.57903298 -2.63365987 4.9221313 0 0 Z " fill="#F6D64B" transform="translate(232,6)"/>
<path d="M0 0 C1.32 0 2.64 0 4 0 C4 0.66 4 1.32 4 2 C4.94875 2.226875 5.8975 2.45375 6.875 2.6875 C10 4 10 4 11.375 6.625 C11.58125 7.40875 11.7875 8.1925 12 9 C10.0625 8.1875 10.0625 8.1875 8 7 C7.67 6.01 7.34 5.02 7 4 C5.35 3.67 3.7 3.34 2 3 C2 2.34 2 1.68 2 1 C1.34 0.67 0.68 0.34 0 0 Z " fill="#F6DD68" transform="translate(370,105)"/>
<path d="M0 0 C0.33 0.99 0.66 1.98 1 3 C0.360625 3.2475 -0.27875 3.495 -0.9375 3.75 C-3.18741541 4.81562433 -3.18741541 4.81562433 -3.75 7.125 C-3.8325 7.74375 -3.915 8.3625 -4 9 C-4.66 9 -5.32 9 -6 9 C-6.33 9.66 -6.66 10.32 -7 11 C-6.29748724 7.83869257 -5.45140033 4.90280067 -4 2 C-1.875 0.6875 -1.875 0.6875 0 0 Z " fill="#F6D958" transform="translate(196,66)"/>
<path d="M0 0 C1.45606519 4.52092968 0.27032841 7.51648796 -1 12 C-1.66 12 -2.32 12 -3 12 C-3.2954439 6.97745369 -2.98514628 4.10457614 0 0 Z " fill="#F1CF3D" transform="translate(190,23)"/>
<path d="M0 0 C0.66 0.33 1.32 0.66 2 1 C1.27991594 5.60853797 -0.31295939 9.67237409 -2 14 C-2.33 14 -2.66 14 -3 14 C-3.40652968 8.57960425 -2.03993514 4.92984325 0 0 Z " fill="#8BACE7" transform="translate(311,253)"/>
<path d="M0 0 C3.96 0.33 7.92 0.66 12 1 C12 1.66 12 2.32 12 3 C8.37 3 4.74 3 1 3 C0.67 2.01 0.34 1.02 0 0 Z " fill="#9CB3E6" transform="translate(265,246)"/>
<path d="M0 0 C0.66 0.33 1.32 0.66 2 1 C1.47731534 3.76276177 0.89130413 6.3260876 0 9 C-0.66 9 -1.32 9 -2 9 C-2 10.65 -2 12.3 -2 14 C-2.33 14 -2.66 14 -3 14 C-2.67 10.7 -2.34 7.4 -2 4 C-1.34 4 -0.68 4 0 4 C0 2.68 0 1.36 0 0 Z " fill="#F4CA3D" transform="translate(254,224)"/>
<path d="M0 0 C3.465 1.98 3.465 1.98 7 4 C4.36095629 5.41377341 1.92879371 6.37240135 -1 7 C-0.67 4.69 -0.34 2.38 0 0 Z " fill="#969699" transform="translate(368,113)"/>
<path d="M0 0 C2.4375 0.375 2.4375 0.375 5 1 C6.16343227 3.32686453 6.19895988 4.84721413 6.25 7.4375 C6.27578125 8.21996094 6.3015625 9.00242187 6.328125 9.80859375 C6 12 6 12 3 15 C3.33 10.71 3.66 6.42 4 2 C2.68 1.34 1.36 0.68 0 0 Z " fill="#F9CC13" transform="translate(365,55)"/>
<path d="M0 0 C1.9375 0.8125 1.9375 0.8125 4 2 C4.33 2.99 4.66 3.98 5 5 C7.01508358 5.73323796 7.01508358 5.73323796 9 6 C9 6.33 9 6.66 9 7 C6.69 6.67 4.38 6.34 2 6 C1.34 4.02 0.68 2.04 0 0 Z " fill="#F1D340" transform="translate(248,8)"/>
<path d="M0 0 C0.99 0 1.98 0 3 0 C2.55037804 1.96035175 2.09001752 3.91824309 1.625 5.875 C1.36976563 6.96554688 1.11453125 8.05609375 0.8515625 9.1796875 C0 12 0 12 -2 14 C-2.20733451 10.26797874 -1.64377468 8.28754936 0 5 C0.16750414 2.33290931 0.16750414 2.33290931 0 0 Z " fill="#92B0E4" transform="translate(321,219)"/>
<path d="M0 0 C0.66 0 1.32 0 2 0 C1.67 3.96 1.34 7.92 1 12 C0.34 12 -0.32 12 -1 12 C-1.02687279 10.18757948 -1.04633715 8.37504767 -1.0625 6.5625 C-1.07410156 5.55316406 -1.08570313 4.54382813 -1.09765625 3.50390625 C-1 1 -1 1 0 0 Z " fill="#F3CF42" transform="translate(366,76)"/>
<path d="M0 0 C3.70066609 0.90460727 5.56497978 1.43868358 7.9375 4.5 C8.288125 5.325 8.63875 6.15 9 7 C8.67 7.66 8.34 8.32 8 9 C7.01 8.34 6.02 7.68 5 7 C5 5.68 5 4.36 5 3 C2.69 2.67 0.38 2.34 -2 2 C-1.34 1.34 -0.68 0.68 0 0 Z " fill="#F5E374" transform="translate(287,1)"/>
<path d="M0 0 C0.99 0.33 1.98 0.66 3 1 C1.68 4.3 0.36 7.6 -1 11 C-1.33 11 -1.66 11 -2 11 C-1 3.57142857 -1 3.57142857 0 0 Z " fill="#88A4E2" transform="translate(283,233)"/>
<path d="M0 0 C2.57798841 0.36363205 3.69164073 0.59533633 5.30078125 2.70703125 C5.63464844 3.40183594 5.96851563 4.09664062 6.3125 4.8125 C6.65925781 5.49957031 7.00601563 6.18664062 7.36328125 6.89453125 C8.10314333 9.34106905 7.82973374 10.61786119 7 13 C6.32880451 11.5437455 5.66318193 10.08492133 5 8.625 C4.62875 7.81289062 4.2575 7.00078125 3.875 6.1640625 C3 4 3 4 3 2 C2.01 1.67 1.02 1.34 0 1 C0 0.67 0 0.34 0 0 Z " fill="#F5D55B" transform="translate(222,235)"/>
<path d="M0 0 C2.0625 0.4375 2.0625 0.4375 4 1 C3.34 1 2.68 1 2 1 C1.9175 1.598125 1.835 2.19625 1.75 2.8125 C0.79544128 5.5966296 -0.57132271 6.43311142 -3 8 C-1.125 1.125 -1.125 1.125 0 0 Z " fill="#F5CF4C" transform="translate(286,118)"/>
<path d="M0 0 C-2.97 1.32 -5.94 2.64 -9 4 C-9 2.68 -9 1.36 -9 0 C-3.375 -1.125 -3.375 -1.125 0 0 Z " fill="#F7D964" transform="translate(311,103)"/>
<path d="M0 0 C1.98 0 3.96 0 6 0 C5.67 2.64 5.34 5.28 5 8 C4.67 8 4.34 8 4 8 C3.855625 7.21625 3.71125 6.4325 3.5625 5.625 C3.12201075 3.03578982 3.12201075 3.03578982 2 1 C1.34 0.67 0.68 0.34 0 0 Z " fill="#A4C4E9" transform="translate(284,219)"/>
<path d="M0 0 C3.68754757 0.49831724 5.60490662 1.10067643 8 4 C6 5 6 5 3.4375 4.25 C1 3 1 3 0 0 Z " fill="#F3CE48" transform="translate(297,58)"/>
<path d="M0 0 C0.33 0 0.66 0 1 0 C1.66 3.3 2.32 6.6 3 10 C2.01 10.495 2.01 10.495 1 11 C-1.78637633 6.8204355 -0.79562512 4.85331323 0 0 Z " fill="#85A1E9" transform="translate(282,267)"/>
<path d="M0 0 C0 2 0 4 0 6 C-0.66 6 -1.32 6 -2 6 C-2.33 6.66 -2.66 7.32 -3 8 C-4 5 -4 5 -3.1875 2.875 C-2 1 -2 1 0 0 Z " fill="#8C8E8F" transform="translate(250,146)"/>
<path d="M0 0 C-1.20381448 2.49361571 -2.45428722 4.68143083 -4 7 C-4.99 7 -5.98 7 -7 7 C-3.86206897 0 -3.86206897 0 0 0 Z " fill="#F2D75D" transform="translate(148,138)"/>
<path d="M0 0 C-2 3 -2 3 -5.125 3.6875 C-6.07375 3.790625 -7.0225 3.89375 -8 4 C-8 3.34 -8 2.68 -8 2 C-4.77208445 -0.1519437 -3.71599191 -0.20086443 0 0 Z " fill="#F4D552" transform="translate(260,131)"/>
<path d="M0 0 C0.99 0.33 1.98 0.66 3 1 C2.67 1.99 2.34 2.98 2 4 C0.02 4 -1.96 4 -4 4 C-2.68 2.68 -1.36 1.36 0 0 Z " fill="#969995" transform="translate(303,115)"/>
<path d="M0 0 C2.475 0.495 2.475 0.495 5 1 C5.33 2.32 5.66 3.64 6 5 C3 5 3 5 1.3125 3.625 C0 2 0 2 0 0 Z " fill="#F4DA64" transform="translate(384,98)"/>
<path d="M0 0 C1.32 0.33 2.64 0.66 4 1 C4 1.66 4 2.32 4 3 C5.32 3.66 6.64 4.32 8 5 C7.67 5.66 7.34 6.32 7 7 C6.34 6.67 5.68 6.34 5 6 C5 5.34 5 4.68 5 4 C4.360625 3.896875 3.72125 3.79375 3.0625 3.6875 C2.381875 3.460625 1.70125 3.23375 1 3 C0.67 2.01 0.34 1.02 0 0 Z " fill="#F4D146" transform="translate(314,70)"/>
<path d="M0 0 C0 3.10551666 -0.5393715 4.35261084 -2 7 C-3.32 6.34 -4.64 5.68 -6 5 C-4.02 3.35 -2.04 1.7 0 0 Z " fill="#F6DA59" transform="translate(275,10)"/>
<path d="M0 0 C0.33 0 0.66 0 1 0 C0.67 2.31 0.34 4.62 0 7 C-0.66 7 -1.32 7 -2 7 C-2 7.66 -2 8.32 -2 9 C-2.66 9 -3.32 9 -4 9 C-2.80100302 5.9168649 -1.52299523 2.93720508 0 0 Z " fill="#F6D340" transform="translate(152,129)"/>
<path d="M0 0 C0.66 0 1.32 0 2 0 C2.33 1.32 2.66 2.64 3 4 C2.34 4 1.68 4 1 4 C0.67 4.99 0.34 5.98 0 7 C-0.66 6.67 -1.32 6.34 -2 6 C-1.34 4.02 -0.68 2.04 0 0 Z " fill="#929592" transform="translate(297,119)"/>
<path d="M0 0 C2.64 0.99 5.28 1.98 8 3 C7.67 3.66 7.34 4.32 7 5 C4.625 4.75 4.625 4.75 2 4 C0.6875 1.9375 0.6875 1.9375 0 0 Z " fill="#F8CF40" transform="translate(257,15)"/>
</svg>
